name ./resultDataOpenSim/trcMotMarkerGrf/sub09/grf-05-07.mot
datacolumns 19
datarows 10
range 0.51200000 0.54800000
endheader

                time	     ground_force_vx	     ground_force_vy	     ground_force_vz	     ground_force_px	     ground_force_py	     ground_force_pz	   l_ground_force_vx	   l_ground_force_vy	   l_ground_force_vz	   l_ground_force_px	   l_ground_force_py	   l_ground_force_pz	     ground_torque_x	     ground_torque_y	     ground_torque_z	   l_ground_torque_x	   l_ground_torque_y	   l_ground_torque_z	
          0.51200000	         15.04267075	        354.70390018	         -8.99553388	         -0.68967051	          0.00000000	          0.10307034	          0.00000000	          0.00000000	          0.00000000	          0.00000000	          0.00000000	          0.00000000	          0.00000000	          2.63713373	          0.00000000	          0.00000000	          0.00000000	          0.00000000	
          0.51600000	         13.94049100	        360.15889067	         -9.70892177	         -0.68814174	          0.00000000	          0.10282938	          0.00000000	          0.00000000	          0.00000000	          0.00000000	          0.00000000	          0.00000000	          0.00000000	          3.03907293	          0.00000000	          0.00000000	          0.00000000	          0.00000000	
          0.52000000	         12.63009025	        366.38393760	        -11.13804042	         -0.68656828	          0.00000000	          0.10254018	          0.00000000	          0.00000000	          0.00000000	          0.00000000	          0.00000000	          0.00000000	          0.00000000	          3.34447878	          0.00000000	          0.00000000	          0.00000000	          0.00000000	
          0.52400000	         11.28380202	        373.37225702	        -13.23789361	         -0.68497562	          0.00000000	          0.10221572	          0.00000000	          0.00000000	          0.00000000	          0.00000000	          0.00000000	          0.00000000	          0.00000000	          3.53549487	          0.00000000	          0.00000000	          0.00000000	          0.00000000	
          0.52800000	         10.09588800	        381.07367328	        -15.78229898	         -0.68339583	          0.00000000	          0.10185698	          0.00000000	          0.00000000	          0.00000000	          0.00000000	          0.00000000	          0.00000000	          0.00000000	          3.62356824	          0.00000000	          0.00000000	          0.00000000	          0.00000000	
          0.53200000	          9.25991108	        389.37840984	        -18.40382512	         -0.68188098	          0.00000000	          0.10145012	          0.00000000	          0.00000000	          0.00000000	          0.00000000	          0.00000000	          0.00000000	          0.00000000	          3.64635496	          0.00000000	          0.00000000	          0.00000000	          0.00000000	
          0.53600000	          8.94081359	        398.13925405	        -20.66647830	         -0.68047819	          0.00000000	          0.10097847	          0.00000000	          0.00000000	          0.00000000	          0.00000000	          0.00000000	          0.00000000	          0.00000000	          3.65853173	          0.00000000	          0.00000000	          0.00000000	          0.00000000	
          0.54000000	          9.24911949	        407.21705799	        -22.15662069	         -0.67921297	          0.00000000	          0.10043307	          0.00000000	          0.00000000	          0.00000000	          0.00000000	          0.00000000	          0.00000000	          0.00000000	          3.71861171	          0.00000000	          0.00000000	          0.00000000	          0.00000000	
          0.54400000	         10.22628579	        416.52111274	        -22.57218486	         -0.67809733	          0.00000000	          0.09981650	          0.00000000	          0.00000000	          0.00000000	          0.00000000	          0.00000000	          0.00000000	          0.00000000	          3.87478714	          0.00000000	          0.00000000	          0.00000000	          0.00000000	
          0.54800000	         11.84584304	        426.02898924	        -21.79005509	         -0.67713060	          0.00000000	          0.09913545	          0.00000000	          0.00000000	          0.00000000	          0.00000000	          0.00000000	          0.00000000	          0.00000000	          4.15306379	          0.00000000	          0.00000000	          0.00000000	          0.00000000	
